# xmcd
#
# Track frame offsets: 
#        180
#        22435
#        34631
#        50228
#        63880
#        77227
#        92830
#        107454
#        126009
#        139551
#        154355
#        169099
#        185601
#        203551
#        212629
#        227026
#        243947
#        257747
#        269699
#        285901
#
# Disc length: 4005 seconds
#
# Revision: 0
# Processed by: cddbd v1.5.1PL0 Copyright (c) Steve Scherf et al.
# Submitted via: ExactAudioCopy v0.95a5
#
DISCID=1f0fa314
DTITLE=Will Ferdy - Een halve eeuw...
DYEAR=1900
DGENRE=Blues
TTITLE0=Mijn Concerto Voor Jou
TTITLE1=Beste Vriend
TTITLE2=Het Vlakke Land
TTITLE3=Het Schrijverke
TTITLE4=Christine
TTITLE5=De Stervende
TTITLE6=De Straatmus van Parijs
TTITLE7=Lied voor Dominiek
TTITLE8=Ik ben van ver teruggekomen
TTITLE9=Belijdenis
TTITLE10=Iedereen heeft iemand nodig
TTITLE11=Verliefd zijn
TTITLE12=Als een Zwaluw
TTITLE13='k Ben verliefd op de zon
TTITLE14=Het regent in de straten
TTITLE15=Ik hou van jou, Je t'  aime
TTITLE16=l'Amour, toujours l' amour
TTITLE17=Over alle grenzen
TTITLE18=Iemand voor ieman zijn
TTITLE19=Christine...nu ( parodie )
EXTD=
EXTT0=
EXTT1=
EXTT2=
EXTT3=
EXTT4=
EXTT5=
EXTT6=
EXTT7=
EXTT8=
EXTT9=
EXTT10=
EXTT11=
EXTT12=
EXTT13=
EXTT14=
EXTT15=
EXTT16=
EXTT17=
EXTT18=
EXTT19=
PLAYORDER=
